# xmcd
#
# Track frame offsets: 
#        150
#        18822
#        41447
#        65400
#        82362
#        101010
#        118232
#        143575
#        154050
#        174057
#        194622
#        205875
#
# Disc length: 2978 seconds
#
# Revision: 14
# Processed by: cddbd v1.5.2PL0 Copyright (c) Steve Scherf et al.
# Submitted via: ExactAudioCopy v1.0b3
#
DISCID=a00ba00c
DTITLE=Nickel Creek - Nickel Creek
DYEAR=2000
DGENRE=Country
TTITLE0=Ode to a Butterfly
TTITLE1=The Lighthouse's Tale
TTITLE2=Out of the Woods
TTITLE3=House of Tom Bombadil
TTITLE4=Reasons Why
TTITLE5=When You Come Back Down
TTITLE6=Sweet Afton
TTITLE7=Cuckoo's Nest
TTITLE8=The Hand Song
TTITLE9=Robin and Marian
TTITLE10=The Fox
TTITLE11=Pastures New
EXTD=YEAR: 2000 ID3G: 254
EXTT0=Chris....mandolin, banjo
EXTT1=Chris....mandolin, lead vocal
EXTT2=Chris....mandolin, bazouki, lead vocal
EXTT3=Chris....mandolin
EXTT4=Chris....mandolin, harmony vocal
EXTT5=Chris....mandolin, lead vocal
EXTT6=Chris....mandolin, bazouki, lead vocal
EXTT7=Chris....mandolin, bazouki
EXTT8=Chris....mandolin, harmony vocal
EXTT9=Chris....bazouki
EXTT10=Chris....mandolin, lead vocal
EXTT11=Chris....mandolin
PLAYORDER=
